<?xml version="1.0" encoding="UTF-8"?> <svg xmlns="http://www.w3.org/2000/svg" id="uuid-24fc4bd3-753c-4b03-baf2-628c13d6a2df" data-name="Слой 2" viewBox="0 0 144.7 60.13"><defs><style> .uuid-5934e339-9562-4407-b151-44f7831e80e2 { fill: #fff; } </style></defs><g id="uuid-da056008-a86d-44eb-800e-747d3e44c0f8" data-name="Новый вар"><g><g><path class="uuid-5934e339-9562-4407-b151-44f7831e80e2" d="M63.02,36.34h-.91c-.19,0-.28-.09-.28-.28v-12.49c0-.19.09-.28.28-.28h6.31c.19,0,.28.1.28.28v.73c0,.19-.1.28-.28.28h-4.91c-.14,0-.2.06-.2.18v4.43c0,.12.07.18.2.18h4.35c.19,0,.28.1.28.28v.73c0,.19-.1.28-.28.28h-4.35c-.14,0-.2.07-.2.2v5.18c0,.19-.1.28-.28.28Z"></path><path class="uuid-5934e339-9562-4407-b151-44f7831e80e2" d="M74.86,36.34h-1.14c-.92,0-1.64-.26-2.15-.79-.51-.53-.77-1.27-.77-2.21v-7.07c0-.19.1-.28.28-.28h.91c.19,0,.28.09.28.28v7.01c0,1.18.56,1.77,1.69,1.77h1.16c.61,0,1.08-.16,1.4-.49.32-.33.49-.79.49-1.38v-6.9c0-.19.09-.28.28-.28h.91c.19,0,.28.09.28.28v9.79c0,.19-.1.28-.28.28h-.91c-.19,0-.28-.09-.28-.28v-.79h-.08c-.34.72-1.03,1.08-2.07,1.08Z"></path><path class="uuid-5934e339-9562-4407-b151-44f7831e80e2" d="M81.68,27.29h-1.12c-.19,0-.28-.09-.28-.26v-.75c0-.19.09-.28.28-.28h1.12c.14,0,.2-.06.2-.18v-1.75c0-.19.09-.28.28-.28h.91c.18,0,.26.09.26.28v1.75c0,.12.07.18.22.18h2.15c.2,0,.3.09.3.28v.75c0,.18-.1.26-.3.26h-2.15c-.15,0-.22.06-.22.18v5.85c0,1.15.6,1.73,1.79,1.73h.79c.2,0,.3.1.3.28v.75c0,.18-.1.26-.3.26h-.97c-.93,0-1.68-.26-2.23-.78s-.83-1.25-.83-2.18v-5.91c0-.12-.07-.18-.2-.18Z"></path><path class="uuid-5934e339-9562-4407-b151-44f7831e80e2" d="M92.34,36.34h-1.14c-.92,0-1.64-.26-2.15-.79-.51-.53-.77-1.27-.77-2.21v-7.07c0-.19.1-.28.28-.28h.91c.19,0,.28.09.28.28v7.01c0,1.18.56,1.77,1.69,1.77h1.16c.61,0,1.08-.16,1.4-.49.32-.33.49-.79.49-1.38v-6.9c0-.19.09-.28.28-.28h.91c.19,0,.28.09.28.28v9.79c0,.19-.1.28-.28.28h-.91c-.19,0-.28-.09-.28-.28v-.79h-.08c-.34.72-1.03,1.08-2.07,1.08Z"></path><path class="uuid-5934e339-9562-4407-b151-44f7831e80e2" d="M99.98,36.34h-.91c-.19,0-.28-.09-.28-.28v-9.79c0-.19.09-.28.28-.28h.91c.19,0,.28.09.28.28v.81h.08c.14-.3.39-.55.77-.77.38-.22.83-.32,1.34-.32h.79c.18,0,.26.09.26.28v.75c0,.1-.02.17-.06.21-.04.05-.11.06-.2.05h-1.1c-.61,0-1.08.18-1.4.55-.33.37-.49.87-.49,1.5v6.72c0,.19-.1.28-.28.28Z"></path><path class="uuid-5934e339-9562-4407-b151-44f7831e80e2" d="M112.45,36.34h-4.3c-.93,0-1.67-.26-2.2-.79-.53-.53-.8-1.27-.8-2.21v-4.35c0-.95.27-1.69.8-2.21s1.27-.79,2.2-.79h1.71c.93,0,1.66.26,2.19.79s.79,1.27.79,2.21v2.58c0,.2-.1.3-.28.3h-5.75c-.14,0-.2.06-.2.18v1.24c0,1.18.57,1.77,1.71,1.77h4.14c.19,0,.28.09.28.28v.73c0,.18-.09.26-.28.26ZM106.8,30.8h4.39c.14,0,.2-.07.2-.2v-1.56c0-1.16-.57-1.75-1.71-1.75h-1.38c-1.14,0-1.71.58-1.71,1.75v1.56c0,.14.07.2.2.2Z"></path><path class="uuid-5934e339-9562-4407-b151-44f7831e80e2" d="M122.33,36.34h-6.52c-.19,0-.28-.09-.28-.28v-12.49c0-.19.09-.28.28-.28h.91c.19,0,.28.1.28.28v11.25c0,.12.07.18.2.18h5.12c.19,0,.28.1.28.3v.75c0,.19-.09.28-.28.28Z"></path><path class="uuid-5934e339-9562-4407-b151-44f7831e80e2" d="M128.34,36.34h-1.06c-.93,0-1.67-.26-2.2-.79-.53-.53-.8-1.27-.8-2.21v-4.35c0-.95.27-1.69.8-2.21s1.27-.79,2.2-.79h4.41c.19,0,.28.09.28.28v9.79c0,.19-.1.28-.28.28h-.91c-.19,0-.28-.09-.28-.28v-.79h-.08c-.34.72-1.03,1.08-2.07,1.08ZM130.5,33.18v-5.71c0-.12-.07-.18-.2-.18h-2.84c-1.12,0-1.69.59-1.69,1.77v4.22c0,1.18.56,1.77,1.69,1.77h1.16c.61,0,1.08-.16,1.4-.49.32-.33.49-.79.49-1.38Z"></path><path class="uuid-5934e339-9562-4407-b151-44f7831e80e2" d="M134.78,36.06v-13.71c0-.19.09-.28.28-.28h.91c.19,0,.28.1.28.28v4.59h.08c.34-.72,1.03-1.08,2.07-1.08h1.14c.92,0,1.65.26,2.18.79.53.53.8,1.26.8,2.19v4.49c0,.95-.27,1.69-.8,2.21-.54.53-1.26.79-2.18.79h-4.49c-.19,0-.28-.09-.28-.28ZM136.46,35.04h2.88c1.15,0,1.73-.59,1.73-1.77v-4.34c0-1.18-.58-1.77-1.73-1.77h-1.2c-.61,0-1.08.16-1.4.49-.33.32-.49.78-.49,1.36v5.85c0,.12.07.18.2.18Z"></path></g><g><path class="uuid-5934e339-9562-4407-b151-44f7831e80e2" d="M90.28,49.39v-.23c0-.07.03-.1.1-.1h.32c.07,0,.1.03.1.1v.18c0,.42.21.64.63.64h.62c.42,0,.63-.22.63-.65v-.24c0-.34-.28-.56-.84-.66-.23-.04-.47-.09-.71-.15-.24-.06-.43-.17-.6-.33-.16-.16-.25-.38-.25-.67v-.35c0-.32.09-.58.28-.77s.44-.28.77-.28h.78c.32,0,.57.09.76.28.19.19.28.44.28.77v.18c0,.07-.03.11-.09.11h-.32c-.06,0-.09-.04-.09-.11v-.13c0-.43-.21-.64-.63-.64h-.6c-.42,0-.63.22-.63.67v.28c0,.24.16.4.47.49.14.04.3.07.47.1.17.03.34.07.51.12.17.05.33.11.47.18s.26.18.34.33c.09.15.13.33.13.54v.32c0,.32-.09.58-.28.77s-.44.28-.76.28h-.81c-.32,0-.57-.09-.76-.28-.19-.19-.28-.44-.28-.77Z"></path><path class="uuid-5934e339-9562-4407-b151-44f7831e80e2" d="M94.21,46.25v-.66c0-.07.03-.1.09-.1h.32c.07,0,.1.03.1.1v.66c0,.07-.03.1-.1.1h-.32c-.06,0-.09-.03-.09-.1ZM94.21,50.34v-3.4c0-.07.03-.1.09-.1h.32c.07,0,.1.03.1.1v3.4c0,.07-.03.1-.1.1h-.32c-.07,0-.1-.03-.1-.1Z"></path><path class="uuid-5934e339-9562-4407-b151-44f7831e80e2" d="M97.09,50.25h-.4c-.32,0-.57-.09-.75-.28-.18-.18-.27-.44-.27-.77v-1.32c0-.33.09-.59.28-.77.19-.18.44-.28.77-.28h1.53c.07,0,.1.03.1.1v3.5c0,.32-.09.58-.28.77-.19.19-.44.28-.77.28h-1.3c-.07,0-.11-.03-.11-.1v-.26c0-.07.03-.1.11-.1h1.24c.39,0,.59-.2.59-.61v-.54h-.03c-.12.25-.36.37-.72.37ZM97.84,49.15v-1.79s-.02-.06-.07-.06h-.98c-.4,0-.59.2-.59.61v1.28c0,.41.2.61.59.61h.4c.21,0,.37-.06.49-.17.11-.11.17-.27.17-.48Z"></path><path class="uuid-5934e339-9562-4407-b151-44f7831e80e2" d="M99.75,50.44h-.32c-.07,0-.1-.03-.1-.1v-4.76c0-.07.03-.1.1-.1h.32c.07,0,.1.03.1.1v1.64h.03c.12-.25.36-.37.72-.37h.4c.32,0,.57.09.75.28.18.18.27.44.27.77v2.46c0,.07-.03.1-.1.1h-.32c-.07,0-.1-.03-.1-.1v-2.43c0-.41-.2-.61-.59-.61h-.4c-.21,0-.37.06-.49.17-.11.11-.17.27-.17.48v2.4c0,.07-.03.1-.1.1Z"></path><path class="uuid-5934e339-9562-4407-b151-44f7831e80e2" d="M103.08,47.29h-.39c-.07,0-.1-.03-.1-.09v-.26c0-.07.03-.1.1-.1h.39s.07-.02.07-.06v-.61c0-.07.03-.1.1-.1h.32c.06,0,.09.03.09.1v.61s.03.06.08.06h.75c.07,0,.11.03.11.1v.26c0,.06-.03.09-.11.09h-.75c-.05,0-.08.02-.08.06v2.03c0,.4.21.6.62.6h.28c.07,0,.11.03.11.1v.26c0,.06-.04.09-.11.09h-.34c-.32,0-.58-.09-.78-.27-.19-.18-.29-.43-.29-.76v-2.05s-.02-.06-.07-.06Z"></path><path class="uuid-5934e339-9562-4407-b151-44f7831e80e2" d="M108.1,46.84h.62c.07,0,.11.03.11.09v.26c0,.07-.03.1-.11.1h-.62s-.06.02-.06.06v2.98c0,.07-.04.1-.11.1h-.31c-.07,0-.1-.03-.1-.1v-2.98s-.02-.06-.07-.06h-.42c-.07,0-.1-.03-.1-.1v-.26c0-.06.03-.09.1-.09h.42s.07-.02.07-.06v-.26c0-.33.08-.59.25-.77.16-.18.4-.27.72-.27h.24c.07,0,.1.03.1.09v.26c0,.07-.03.1-.1.1h-.18c-.19,0-.33.05-.4.14s-.11.25-.11.46v.24s.02.06.06.06Z"></path><path class="uuid-5934e339-9562-4407-b151-44f7831e80e2" d="M109.86,50.44h-.32c-.07,0-.1-.03-.1-.1v-3.4c0-.07.03-.1.1-.1h.32c.07,0,.1.03.1.1v.28h.03c.05-.1.14-.19.27-.27s.29-.11.47-.11h.28c.06,0,.09.03.09.1v.26s0,.06-.02.07c-.01.02-.04.02-.07.02h-.38c-.21,0-.37.06-.49.19-.11.13-.17.3-.17.52v2.34c0,.07-.03.1-.1.1Z"></path><path class="uuid-5934e339-9562-4407-b151-44f7831e80e2" d="M113.3,50.44h-.61c-.32,0-.58-.09-.77-.28s-.28-.44-.28-.77v-1.51c0-.33.09-.59.28-.77s.44-.28.77-.28h.61c.32,0,.58.09.77.28s.28.44.28.77v1.51c0,.33-.09.59-.28.77s-.44.28-.77.28ZM112.75,49.99h.49c.4,0,.59-.2.59-.61v-1.48c0-.4-.2-.61-.59-.61h-.49c-.39,0-.59.2-.59.61v1.48c0,.4.2.61.59.61Z"></path><path class="uuid-5934e339-9562-4407-b151-44f7831e80e2" d="M115.66,50.44h-.32c-.07,0-.1-.03-.1-.1v-3.4c0-.07.03-.1.1-.1h.32c.07,0,.1.03.1.1v.28h.03c.13-.25.38-.37.75-.37h.26c.41,0,.7.16.86.48.08-.16.19-.27.36-.36s.33-.12.51-.12h.25c.32,0,.57.09.75.28.18.18.27.44.27.77v2.46c0,.07-.03.1-.1.1h-.32c-.07,0-.1-.03-.1-.1v-2.43c0-.41-.2-.61-.59-.61h-.23c-.21,0-.37.06-.49.18-.12.12-.17.28-.17.49v2.38c0,.07-.03.1-.1.1h-.32c-.07,0-.1-.03-.1-.1v-2.43c0-.41-.2-.61-.59-.61h-.26c-.21,0-.37.06-.49.17-.11.11-.17.27-.17.48v2.4c0,.07-.03.1-.1.1Z"></path><path class="uuid-5934e339-9562-4407-b151-44f7831e80e2" d="M122.65,47.29h-.39c-.07,0-.1-.03-.1-.09v-.26c0-.07.03-.1.1-.1h.39s.07-.02.07-.06v-.61c0-.07.03-.1.1-.1h.32c.06,0,.09.03.09.1v.61s.03.06.08.06h.75c.07,0,.11.03.11.1v.26c0,.06-.03.09-.11.09h-.75c-.05,0-.08.02-.08.06v2.03c0,.4.21.6.62.6h.28c.07,0,.11.03.11.1v.26c0,.06-.04.09-.11.09h-.34c-.32,0-.58-.09-.78-.27-.19-.18-.29-.43-.29-.76v-2.05s-.02-.06-.07-.06Z"></path><path class="uuid-5934e339-9562-4407-b151-44f7831e80e2" d="M125.4,50.44h-.32c-.07,0-.1-.03-.1-.1v-4.76c0-.07.03-.1.1-.1h.32c.07,0,.1.03.1.1v1.64h.03c.12-.25.36-.37.72-.37h.4c.32,0,.57.09.75.28.18.18.27.44.27.77v2.46c0,.07-.03.1-.1.1h-.32c-.07,0-.1-.03-.1-.1v-2.43c0-.41-.2-.61-.59-.61h-.4c-.21,0-.37.06-.49.17-.11.11-.17.27-.17.48v2.4c0,.07-.03.1-.1.1Z"></path><path class="uuid-5934e339-9562-4407-b151-44f7831e80e2" d="M131.06,50.44h-1.5c-.32,0-.58-.09-.77-.28s-.28-.44-.28-.77v-1.51c0-.33.09-.59.28-.77s.44-.28.77-.28h.59c.32,0,.58.09.76.28.18.18.28.44.28.77v.9c0,.07-.03.11-.1.11h-2s-.07.02-.07.06v.43c0,.41.2.61.59.61h1.44c.07,0,.1.03.1.1v.25c0,.06-.03.09-.1.09ZM129.1,48.51h1.52s.07-.02.07-.07v-.54c0-.4-.2-.61-.59-.61h-.48c-.39,0-.59.2-.59.61v.54s.02.07.07.07Z"></path><path class="uuid-5934e339-9562-4407-b151-44f7831e80e2" d="M133.99,47.29h-.39c-.07,0-.1-.03-.1-.09v-.26c0-.07.03-.1.1-.1h.39s.07-.02.07-.06v-.61c0-.07.03-.1.1-.1h.32c.06,0,.09.03.09.1v.61s.03.06.08.06h.75c.07,0,.11.03.11.1v.26c0,.06-.03.09-.11.09h-.75c-.05,0-.08.02-.08.06v2.03c0,.4.21.6.62.6h.28c.07,0,.11.03.11.1v.26c0,.06-.04.09-.11.09h-.34c-.32,0-.58-.09-.78-.27-.19-.18-.29-.43-.29-.76v-2.05s-.02-.06-.07-.06Z"></path><path class="uuid-5934e339-9562-4407-b151-44f7831e80e2" d="M137.9,50.44h-.61c-.32,0-.58-.09-.77-.28s-.28-.44-.28-.77v-1.51c0-.33.09-.59.28-.77s.44-.28.77-.28h.61c.32,0,.58.09.77.28s.28.44.28.77v1.51c0,.33-.09.59-.28.77s-.44.28-.77.28ZM137.35,49.99h.49c.4,0,.59-.2.59-.61v-1.48c0-.4-.2-.61-.59-.61h-.49c-.39,0-.59.2-.59.61v1.48c0,.4.2.61.59.61Z"></path><path class="uuid-5934e339-9562-4407-b151-44f7831e80e2" d="M140.26,51.47h-.32c-.07,0-.1-.03-.1-.1v-4.43c0-.07.03-.1.1-.1h.32c.07,0,.1.03.1.1v.28h.03c.12-.25.36-.37.72-.37h.42c.32,0,.57.09.74.28s.26.44.26.77v1.51c0,.33-.09.59-.26.77s-.42.28-.74.28h-.42c-.36,0-.6-.12-.72-.37h-.03v1.31c0,.07-.03.1-.1.1ZM141.02,49.99h.42c.4,0,.6-.2.6-.61v-1.47c0-.41-.2-.61-.6-.61h-.42c-.21,0-.37.06-.49.17-.11.11-.17.27-.17.48v1.4c0,.21.06.37.17.48.11.11.28.17.49.17Z"></path></g><g><polygon class="uuid-5934e339-9562-4407-b151-44f7831e80e2" points=".04 0 2.34 0 42.14 18.02 41.38 18.78 .04 0"></polygon><polygon class="uuid-5934e339-9562-4407-b151-44f7831e80e2" points="60.15 0 57.85 0 18.05 18.02 18.81 18.78 60.15 0"></polygon><polygon class="uuid-5934e339-9562-4407-b151-44f7831e80e2" points="5.57 5.53 14.57 5.53 15.67 6.03 6.08 6.03 5.57 5.53"></polygon><polygon class="uuid-5934e339-9562-4407-b151-44f7831e80e2" points="54.65 5.53 45.65 5.53 44.55 6.03 54.14 6.03 54.65 5.53"></polygon><polygon class="uuid-5934e339-9562-4407-b151-44f7831e80e2" points="14.03 5.3 11.85 11.82 12.97 12.94 15.22 5.84 14.03 5.3"></polygon><polygon class="uuid-5934e339-9562-4407-b151-44f7831e80e2" points="46.13 5.3 48.33 11.83 47.22 12.94 44.93 5.84 46.13 5.3"></polygon><polygon class="uuid-5934e339-9562-4407-b151-44f7831e80e2" points="12.97 12.94 47.22 12.94 46.59 13.57 13.62 13.59 12.97 12.94"></polygon><rect class="uuid-5934e339-9562-4407-b151-44f7831e80e2" y="18.64" width="144.7" height=".32"></rect><polygon class="uuid-5934e339-9562-4407-b151-44f7831e80e2" points=".04 0 1.6 0 28.06 26.63 26.66 26.63 26.66 28.15 .04 1.52 .04 0"></polygon><polygon class="uuid-5934e339-9562-4407-b151-44f7831e80e2" points="60.15 0 58.57 0 32.11 26.63 33.51 26.63 33.51 28.15 60.16 1.52 60.15 0"></polygon><polygon class="uuid-5934e339-9562-4407-b151-44f7831e80e2" points=".04 60.12 2.35 60.12 42.15 42.11 41.39 41.35 .04 60.12"></polygon><polygon class="uuid-5934e339-9562-4407-b151-44f7831e80e2" points="60.16 60.12 57.86 60.12 18.06 42.11 18.82 41.35 60.16 60.12"></polygon><polygon class="uuid-5934e339-9562-4407-b151-44f7831e80e2" points="5.57 54.6 14.57 54.6 15.68 54.1 6.08 54.1 5.57 54.6"></polygon><polygon class="uuid-5934e339-9562-4407-b151-44f7831e80e2" points="54.65 54.6 45.65 54.6 44.55 54.1 54.14 54.1 54.65 54.6"></polygon><polygon class="uuid-5934e339-9562-4407-b151-44f7831e80e2" points="14.03 54.83 11.85 48.3 12.97 47.18 15.22 54.29 14.03 54.83"></polygon><polygon class="uuid-5934e339-9562-4407-b151-44f7831e80e2" points="46.13 54.83 48.33 48.29 47.22 47.18 44.94 54.29 46.13 54.83"></polygon><polygon class="uuid-5934e339-9562-4407-b151-44f7831e80e2" points="12.97 47.18 47.22 47.18 46.6 46.56 13.63 46.53 12.97 47.18"></polygon><polygon class="uuid-5934e339-9562-4407-b151-44f7831e80e2" points=".04 60.12 1.61 60.12 28.07 33.5 26.67 33.5 26.67 31.98 .03 58.61 .04 60.12"></polygon><polygon class="uuid-5934e339-9562-4407-b151-44f7831e80e2" points="60.16 60.12 58.57 60.12 32.11 33.5 33.51 33.5 33.51 31.98 60.16 58.61 60.16 60.12"></polygon><line class="uuid-5934e339-9562-4407-b151-44f7831e80e2" x1="42.14" y1="18.02" x2="41.38" y2="18.78"></line><line class="uuid-5934e339-9562-4407-b151-44f7831e80e2" x1="42.14" y1="42.11" x2="41.38" y2="41.35"></line><line class="uuid-5934e339-9562-4407-b151-44f7831e80e2" x1="60.15" x2="60.16" y2="2.31"></line><line class="uuid-5934e339-9562-4407-b151-44f7831e80e2" x1="46.56" y1="46.53" x2="47.21" y2="47.19"></line><line class="uuid-5934e339-9562-4407-b151-44f7831e80e2" x1="47.21" y1="12.94" x2="46.59" y2="13.57"></line><polygon class="uuid-5934e339-9562-4407-b151-44f7831e80e2" points=".04 60.13 .04 57.82 18.05 18.02 18.81 18.78 .04 60.13"></polygon><polygon class="uuid-5934e339-9562-4407-b151-44f7831e80e2" points=".04 0 .04 2.31 18.05 42.11 18.81 41.35 .04 0"></polygon><polygon class="uuid-5934e339-9562-4407-b151-44f7831e80e2" points="5.56 54.59 5.56 45.6 6.06 44.49 6.06 54.09 5.56 54.59"></polygon><polygon class="uuid-5934e339-9562-4407-b151-44f7831e80e2" points="5.56 5.52 5.56 14.52 6.06 15.62 6.06 6.02 5.56 5.52"></polygon><polygon class="uuid-5934e339-9562-4407-b151-44f7831e80e2" points="5.33 46.14 11.86 48.32 12.98 47.2 5.87 44.95 5.33 46.14"></polygon><polygon class="uuid-5934e339-9562-4407-b151-44f7831e80e2" points="5.33 14.04 11.87 11.84 12.98 12.95 5.87 15.23 5.33 14.04"></polygon><polygon class="uuid-5934e339-9562-4407-b151-44f7831e80e2" points="12.98 47.2 12.98 12.95 13.6 13.57 13.62 46.54 12.98 47.2"></polygon><polygon class="uuid-5934e339-9562-4407-b151-44f7831e80e2" points="60.16 60.12 60.16 57.82 42.14 18.02 41.38 18.78 60.16 60.12"></polygon><polygon class="uuid-5934e339-9562-4407-b151-44f7831e80e2" points="60.16 0 60.16 2.31 42.14 42.11 41.38 41.35 60.16 0"></polygon><polygon class="uuid-5934e339-9562-4407-b151-44f7831e80e2" points="54.63 54.59 54.63 45.59 54.13 44.49 54.13 54.08 54.63 54.59"></polygon><polygon class="uuid-5934e339-9562-4407-b151-44f7831e80e2" points="54.63 5.51 54.63 14.51 54.13 15.61 54.13 6.02 54.63 5.51"></polygon><polygon class="uuid-5934e339-9562-4407-b151-44f7831e80e2" points="54.86 46.13 48.34 48.31 47.22 47.19 54.32 44.94 54.86 46.13"></polygon><polygon class="uuid-5934e339-9562-4407-b151-44f7831e80e2" points="54.86 14.03 48.33 11.83 47.22 12.94 54.32 15.22 54.86 14.03"></polygon><polygon class="uuid-5934e339-9562-4407-b151-44f7831e80e2" points="47.22 47.19 47.22 12.94 46.59 13.57 46.57 46.53 47.22 47.19"></polygon><rect class="uuid-5934e339-9562-4407-b151-44f7831e80e2" x="26.35" y="26.32" width="7.49" height="7.49"></rect><rect class="uuid-5934e339-9562-4407-b151-44f7831e80e2" y="40.86" width="144.7" height=".32"></rect><rect class="uuid-5934e339-9562-4407-b151-44f7831e80e2" x="4" y="29.78" width="50.95" height=".32"></rect></g></g></g></svg> 